<svg xmlns="http://www.w3.org/2000/svg" viewBox="0 0 903.53 183.47"><defs><style>.cls-1{fill:none;}</style></defs><g id="Layer_2" data-name="Layer 2"><g id="верхняя_плашка" data-name="верхняя плашка"><rect x="722.37" y="90.35" width="36.02" height="14.66"/><rect x="789.68" y="90.35" width="36.02" height="14.66"/><rect x="765.86" y="51.31" width="16.32" height="32.34"/><rect x="765.86" y="111.73" width="16.32" height="32.34"/><rect x="8.94" y="130.6" width="35.45" height="14.42"/><rect x="75.19" y="130.6" width="35.45" height="14.42"/><rect x="51.75" y="92.17" width="16.07" height="31.83"/><rect x="51.75" y="151.64" width="16.07" height="31.82"/><rect x="651.08" y="29.44" width="27.16" height="11.05"/><rect x="701.84" y="29.44" width="27.16" height="11.05"/><rect x="683.88" width="12.31" height="24.38"/><rect x="683.88" y="45.56" width="12.31" height="24.38"/><rect x="163.01" y="94.07" width="15.72" height="6.4"/><rect x="192.4" y="94.07" width="15.72" height="6.4"/><rect x="182" y="77.02" width="7.13" height="14.12"/><rect x="182" y="103.4" width="7.13" height="14.12"/><rect class="cls-1" width="903.53" height="183.47"/></g></g></svg>