<svg xmlns="http://www.w3.org/2000/svg" viewBox="0 0 63.9 63.91"><defs><style>.cls-1{fill:#2b2d33;fill-rule:evenodd;}</style></defs><g id="Layer_2" data-name="Layer 2"><g id="верхняя_плашка" data-name="верхняя плашка"><path class="cls-1" d="M31.9,63.85V39.79l-7.85,0,0-10.63a30.18,30.18,0,0,1,4-.06h3.85c.36-4.17-.77-6.94,2.28-11.88,1.62-2.63,5.46-5.71,8.4-5.66.26-.31,9.17-.22,9.91-.14.11,1,.14,9.91,0,10.68l-8.89.05c-1,.21-1.66,1.42-1.7,2.7a35.58,35.58,0,0,0,0,4.26l10.62,0-.05,10.67H41.82l0,24.07H53.3a9.61,9.61,0,0,0,5.12-1.51c.24-.16.39-.22.63-.39.46-.31.68-.56,1.07-.87a4.9,4.9,0,0,0,1-1c3.46-4.09,2.72-7,2.72-12.57V16.86c0-3.63.42-6-.44-9a6.93,6.93,0,0,0-.54-1.4L60.66,3.29l-.06,0-.05-.05A11.13,11.13,0,0,0,53.82,0C45.06,0,35.7.05,26.91.05H11.62A10.34,10.34,0,0,0,8.17.36a10.47,10.47,0,0,0-3.82,1.9A10.6,10.6,0,0,0,1,6.5,9.92,9.92,0,0,0,0,11.36V53.45A6.13,6.13,0,0,0,.19,55.2a7.92,7.92,0,0,0,.73,2.12,10.21,10.21,0,0,0,2.93,3.9c3.6,3.36,7.86,2.63,12.66,2.63Z"/></g></g></svg>