<svg xmlns="http://www.w3.org/2000/svg" viewBox="0 0 63.9 63.91"><defs><style>.cls-1{fill:#2b2d33;fill-rule:evenodd;}</style></defs><g id="Layer_2" data-name="Layer 2"><g id="верхняя_плашка" data-name="верхняя плашка"><path class="cls-1" d="M31.9,63.85H53.3a9.61,9.61,0,0,0,5.12-1.51c.24-.16.38-.22.63-.39.46-.31.68-.56,1.07-.87a4.9,4.9,0,0,0,1-1c3.46-4.09,2.72-7,2.72-12.57V16.86c0-3.63.42-6-.44-9a7.57,7.57,0,0,0-.54-1.4L60.65,3.29l0,0-.05-.05A11.13,11.13,0,0,0,53.82,0C45.06,0,35.7.05,26.91.05H11.62A10.45,10.45,0,0,0,4.35,2.26,10.6,10.6,0,0,0,1,6.5,9.92,9.92,0,0,0,0,11.36V53.45A6.13,6.13,0,0,0,.19,55.2a7.92,7.92,0,0,0,.73,2.12,10.21,10.21,0,0,0,2.93,3.9c3.6,3.36,7.86,2.63,12.66,2.63Zm5.79-23.79a5.52,5.52,0,0,1-.15.89A27.73,27.73,0,0,1,36,46,12.91,12.91,0,0,1,34.43,49C34,49.6,33,50.6,32.07,50.6A2.75,2.75,0,0,1,30,49.46,11.48,11.48,0,0,1,28,46.33a23.8,23.8,0,0,1-1.06-3l-.58-2.43a5.24,5.24,0,0,1-.15-.85c.2,0,.31-.05.57-.05a2.52,2.52,0,0,0,.55,0c.57-.07,7,0,8,0l1.79,0c.25,0,.33,0,.52.05ZM33.3,10.57c.72,0,1.44.18,2.14.29a25,25,0,0,1,3.93,1,19.33,19.33,0,0,1,6.83,4.16l.52.48c.32.32.69.63,1,1a2.53,2.53,0,0,0,.22.26c.09.09.17.16.26.26a19,19,0,0,1,2.28,3.2c.08.12.11.22.19.34s.22.41.33.63a23.21,23.21,0,0,1,1.86,5.15,14.15,14.15,0,0,1,.45,3.52,26.93,26.93,0,0,1-.1,3.82,22.36,22.36,0,0,1-1.81,6.17,18.87,18.87,0,0,1-1.57,2.86l-.22.31-.84,1.16c-.45.54-.9,1.07-1.4,1.57a9.45,9.45,0,0,1-1,1l-.52.48a21.83,21.83,0,0,1-6.27,3.71,24.19,24.19,0,0,1-5.65,1.32l-1.9.09h0c-.43,0-.79,0-1.25,0a22.09,22.09,0,0,1-5.47-1.06c-.36-.12-.63-.22-1-.35a9.16,9.16,0,0,1-1-.39l-.45-.2-1.29-.67a16.5,16.5,0,0,1-2.4-1.57c-.27-.2-.47-.36-.73-.57l-.36-.3c-.57-.53-1.17-1-1.7-1.61a21.55,21.55,0,0,1-4.14-6.35,20.46,20.46,0,0,1-1.66-7.58,29.32,29.32,0,0,1,.13-3.26A16.22,16.22,0,0,1,11,27.67c.26-1.12.54-2,.89-3.08a19.7,19.7,0,0,1,2.77-5.2c.15-.2.26-.36.41-.55s.29-.36.44-.56l.47-.54a1.71,1.71,0,0,0,.22-.25,2.2,2.2,0,0,1,.26-.27c.32-.32.66-.7,1-1a2.53,2.53,0,0,0,.26-.22,21.79,21.79,0,0,1,5.8-3.7c.94-.37,1.94-.73,2.94-1A18.49,18.49,0,0,1,29,10.76c1.07-.15,2.19-.1,3.25-.19h1.1ZM26.76,49.86l-1-.34a18.34,18.34,0,0,1-4.87-2.58l-.73-.58a3.44,3.44,0,0,1-.35-.3l-2.32-2.39-.29-.36a16.34,16.34,0,0,1-2-3.34H23.4c.11.44.17,1,.26,1.4a33,33,0,0,0,1.06,3.91c.06.2.14.42.2.62l.71,1.78c.15.36.36.74.55,1.1a9.35,9.35,0,0,1,.58,1.08Zm22-9.89c0,.09,0,.14-.1.25l-.34.67a15.32,15.32,0,0,1-1,1.67c-.2.3-.9,1.22-1.18,1.52-.13.14-.19.23-.33.37a3.39,3.39,0,0,0-.31.34,17.18,17.18,0,0,1-1.56,1.45,18,18,0,0,1-3,2c-.29.18-.58.3-.89.46-1,.5-2.61,1-2.89,1.12a11.21,11.21,0,0,1,.58-1.08A25.82,25.82,0,0,0,40,42.73c.23-1,.37-2,.55-2.76Zm-22.92-2.7c0-.37-.12-.77-.13-1.18l-.17-5.66c0-.25,0-.32,0-.52s0-.38,0-.57c0-.62.22-2.23.22-2.65.52,0,1-.05,1.52-.05H38.08a7,7,0,0,1,.13,1.05l.14,1.65c0,.19,0,.39,0,.57a4.32,4.32,0,0,1,0,.57,48.7,48.7,0,0,1-.31,6.79ZM23.1,26.64l-.11,1c-.06.36,0,.65-.07,1-.08,1-.15,4.72-.05,5.63a5.23,5.23,0,0,1,0,.56c0,.51.22,2.22.22,2.44H14a3.15,3.15,0,0,0-.12-.58,16.82,16.82,0,0,1-.58-5.39,21.29,21.29,0,0,1,.7-4.66Zm18,3.92-.26-3.92h9.06a3.77,3.77,0,0,0,.12.53l.35,1.61a18.91,18.91,0,0,1,.23,3.92,22.06,22.06,0,0,1-.7,4.57H40.83a4.87,4.87,0,0,1,.05-.51,51.11,51.11,0,0,0,.21-6.2ZM32,13.27a3.84,3.84,0,0,1,2.44,1.65,12.28,12.28,0,0,1,1.47,2.59,22.92,22.92,0,0,1,1.06,3,31,31,0,0,1,.74,3.31,6.11,6.11,0,0,1-1.17.09c-1.35,0-9.56.08-10.29-.09,0-.26.26-1.39.34-1.72a30.42,30.42,0,0,1,1.18-3.9c.09-.24.19-.48.3-.71l.33-.71c.64-1.27,2-3.5,3.6-3.5ZM26.8,14l-.15.29a18.23,18.23,0,0,0-1,1.9,33.07,33.07,0,0,0-2.12,7.07c-.08.39,0,.63-.2.63H15.65c-.24,0-.26,0-.48,0a14.9,14.9,0,0,1,1-1.74L17,20.89a24.56,24.56,0,0,1,2.55-2.81c.16-.12.21-.19.35-.31l1.52-1.17a19.54,19.54,0,0,1,3.46-1.9l1-.38,1-.31ZM40.52,23.9c-.2-.88-.31-1.74-.56-2.75a29.16,29.16,0,0,0-1.42-4.38c-.09-.22-.16-.37-.25-.58-.21-.52-1.09-2.06-1.12-2.18a4.11,4.11,0,0,0,.53.17,19.12,19.12,0,0,1,2.81,1.19c.15.09.27.14.43.22a19.16,19.16,0,0,1,2.45,1.61l1.09.91a11.86,11.86,0,0,1,1,1l1.22,1.43a19,19,0,0,1,2,3.31c-.25,0-.28,0-.48,0s-.36,0-.53,0Z"/></g></g></svg>