<svg xmlns="http://www.w3.org/2000/svg" viewBox="0 0 63.9 63.91"><defs><style>.cls-1{fill:#2b2d33;fill-rule:evenodd;}</style></defs><g id="Layer_2" data-name="Layer 2"><g id="верхняя_плашка" data-name="верхняя плашка"><path class="cls-1" d="M31.9,63.85H53.3a9.61,9.61,0,0,0,5.12-1.51c.24-.16.38-.22.63-.39.46-.31.68-.56,1.07-.87a4.9,4.9,0,0,0,1-1c3.46-4.09,2.72-7,2.72-12.57V16.86c0-3.63.42-6-.44-9a6.93,6.93,0,0,0-.54-1.4L60.66,3.29l-.06,0-.05-.05A11.13,11.13,0,0,0,53.82,0C45.06,0,35.7.05,26.91.05H11.62A10.34,10.34,0,0,0,8.17.36a10.47,10.47,0,0,0-3.82,1.9A10.6,10.6,0,0,0,1,6.5,9.92,9.92,0,0,0,0,11.36V53.45A6.13,6.13,0,0,0,.19,55.2a7.92,7.92,0,0,0,.73,2.12,10.21,10.21,0,0,0,2.93,3.9c3.6,3.36,7.86,2.63,12.66,2.63ZM23.1,19.11a1.59,1.59,0,0,1,.81-1.2,4.09,4.09,0,0,1,1.4-.61A16.9,16.9,0,0,1,29,17c8.65-.11,7.55.57,7.4,8.21,0,1.24-.12,2.74,0,4a4.07,4.07,0,0,0,.39,1.63c1,1.85,2.38.22,3.36-1a27.69,27.69,0,0,0,1.67-2.36A40.22,40.22,0,0,0,44.9,21.6l.13-.31c1.25-3.11,1.06-2.91,3.6-2.92,1.56,0,7-.13,8-.05,1.4.12,1.93.68,1.52,2.13C57.52,22.67,55,26,53.55,27.89c-.28.38-.57.75-.84,1.09s-.27.34-.42.54c-1.61,2.15-3.59,4-2,5.87.69.85,2.11,2.09,3,3l0,0,0,0,.14.13.26.26.26.27a24.14,24.14,0,0,1,3.8,4.7c.66,1.13.63,2.11-.45,2.67-1.28.65-5.75.48-7.52.49a6.61,6.61,0,0,1-3.55-.5A9,9,0,0,1,44,44.74c-.62-.65-1.25-1.34-1.87-2.08l-.47-.5a10,10,0,0,0-1.52-1.55c-2.33-1.92-3.48.8-3.67,3.09-.11,1.27.13,2.45-1.2,2.77a27.84,27.84,0,0,1-3.92.09,17.13,17.13,0,0,1-9.21-2.69L18.8,41.23c-5.51-5.95-7.92-10.78-11.73-18.3l-.74-1.61c0-.12-.13-.27-.18-.37-.77-1.59-1-2.59,1.4-2.65,1.33,0,7.05-.18,7.89.13,1.09.39,1.26,1.15,1.71,2.23.22.52.44.9.64,1.38a46.09,46.09,0,0,0,3.59,6.42,21.39,21.39,0,0,0,1.71,2.25c.48.53,1.82,1.59,2.55.43.94-1.51.78-5.19.69-7.29a7.87,7.87,0,0,0-.65-3.38A3.15,3.15,0,0,0,23.1,19.11Z"/></g></g></svg>