<svg xmlns="http://www.w3.org/2000/svg" viewBox="0 0 246.57 35.22"><defs><style>.cls-1,.cls-2{fill:#010300;}.cls-1{fill-rule:evenodd;}.cls-3{fill:#f9fcff;}</style></defs><g id="Layer_2" data-name="Layer 2"><g id="верхняя_плашка" data-name="верхняя плашка"><path class="cls-1" d="M197.26,21.13h7v7.05h-7v-7Zm-91.59,0h7v7.05h-7v-7Zm70.45-7v7h7v7.05h7v-7h7v-7h-7V7h-7v7.05Zm-91.58,0v7h7v7.05h7v-7h7v-7h-7V7h-7v7.05Zm91.58,0h-7V7h7v7.05Zm-91.58,0H77.49V7h7.05v7.05ZM14.09,7H63.4v7.05h7.05v7h7v7.05h7.05v7h49.31v-7h7.05v-7h7v-7H162v7h7.05v7.05h7v7h49.32v-7h7v-7h7.05v-7h7V0H14.09Z"/><rect class="cls-2" y="7.04" width="14.09" height="7.04"/><rect class="cls-3" x="77.49" y="7.04" width="7.04" height="7.04"/><rect class="cls-3" x="91.58" y="7.04" width="7.04" height="7.04"/><rect class="cls-3" x="169.08" y="7.04" width="7.04" height="7.04"/><rect class="cls-3" x="183.17" y="7.04" width="7.04" height="7.04"/><rect class="cls-3" x="84.54" y="14.09" width="7.04" height="7.04"/><rect class="cls-2" x="91.58" y="14.09" width="7.04" height="7.04"/><rect class="cls-3" x="98.63" y="14.09" width="7.05" height="7.04"/><rect class="cls-3" x="176.12" y="14.09" width="7.04" height="7.04"/><rect class="cls-2" x="183.17" y="14.09" width="7.04" height="7.04"/><rect class="cls-3" x="190.21" y="14.09" width="7.05" height="7.04"/><rect class="cls-3" x="91.58" y="21.13" width="7.04" height="7.04"/><rect class="cls-3" x="105.67" y="21.13" width="7.04" height="7.04"/><rect class="cls-3" x="183.17" y="21.13" width="7.04" height="7.04"/><rect class="cls-3" x="197.26" y="21.13" width="7.04" height="7.04"/></g></g></svg>